# xmcd
#
# Track frame offsets:
#	183
#	14053
#	32160
#	47493
#	60490
#	74803
#	89260
#	101998
#	117940
#	129518
#	144043
#	154805
#	167528
#	181603
#	195748
#
# Disc length: 2788 seconds
#
# Revision: 0
# Processed by: cddbd v1.5.1PL0 Copyright (c) Steve Scherf et al.
# Submitted via: audiograbber 1.83.01
#
DISCID=cb0ae20f
DTITLE=Don Williams - The Great Don Williams
DYEAR=1900
DGENRE=
TTITLE0=We Should Be Together
TTITLE1=I Believe In You
TTITLE2=I Recall A Gypsy Women
TTITLE3=Lay Down Beside Me
TTITLE4=Listen To The Radio
TTITLE5=She's In Love With A Rodeo Man
TTITLE6=Some Broken Hearts Never Mend
TTITLE7=Till The Rivers All Run Dry
TTITLE8=Time On My Hands
TTITLE9=Tulsa Time
TTITLE10=(Turn Out The Light) And Love Me Tonight
TTITLE11=You're My Best Friend
TTITLE12=I'm Just A Country Boy
TTITLE13=Come Early Morning
TTITLE14=Shelter Of Your Eyes
EXTD=
EXTT0=
EXTT1=
EXTT2=
EXTT3=
EXTT4=
EXTT5=
EXTT6=
EXTT7=
EXTT8=
EXTT9=
EXTT10=
EXTT11=
EXTT12=
EXTT13=
EXTT14=
PLAYORDER=
